<?xml version="1.0" encoding="UTF-8"?>
<svg id="Layer_1" data-name="Layer 1" xmlns="http://www.w3.org/2000/svg" viewBox="0 0 282.54 245.45">
  <defs>
    <style>
      .cls-1 {
        fill: #fff;
      }

      .cls-2 {
        fill: #b0f1f2;
      }
    </style>
  </defs>
  <g>
    <polygon class="cls-1" points="184.84 57.37 184.01 58.03 183.99 58.01 184.84 57.37"/>
    <polygon points="184.84 57.37 183.99 58.01 184.01 58.03 184.84 57.37 184.84 57.37"/>
  </g>
  <path class="cls-2" d="m282.54,122.72c0,15.72-106.81,2.91-114.15,15.6-7.58,13.09,56.66,99.16,43.56,106.73-12.69,7.34-54.97-91.06-70.68-91.06s-57.99,98.4-70.69,91.06c-13.09-7.58,51.14-93.64,43.56-106.73s-114.15.12-114.15-15.6,106.81-2.91,114.15-15.6C121.73,94.03,57.49,7.97,70.59.39s54.97,91.06,70.69,91.06S199.27-6.95,211.96.39s-51.14,93.64-43.56,106.73c7.34,12.69,114.15-.12,114.15,15.6Z"/>
</svg>