<?xml version="1.0" encoding="utf-8"?>
<!-- Generator: Adobe Illustrator 27.5.0, SVG Export Plug-In . SVG Version: 6.00 Build 0)  -->
<svg version="1.1" id="Layer_1" xmlns="http://www.w3.org/2000/svg" xmlns:xlink="http://www.w3.org/1999/xlink" x="0px" y="0px"
	 viewBox="0 0 243.1 243.1" style="enable-background:new 0 0 243.1 243.1;" xml:space="preserve">
<style type="text/css">
	.st0{fill:#035DFF;}
	.st1{fill:#FFB4CE;}
</style>
<path class="st0" d="M49.2,78.8c3.8-3.3,8.2-5.8,12.9-7.1c1.7-0.5,4.8-1,5.7-1c0.6,0,0.7,0,1.7,1.2c3.2,3.7,3.4,9-0.4,12.3
	c-2,1.8-3.8,2.3-7.8,1.9c-4.5-0.6-8.4-0.1-11.8,2.9c-2.7,2.4-4.6,5.9-4.9,9.5c-0.3,4.1,0.4,6,2.9,6.9c2.2,0.9,3.8,0.4,8-2.4
	c9.8-6.4,19.5-10.9,31.5-8.4c3.9,0.8,7.3,2.8,10,5.6c4.5,4.7,6,11.6,4.3,19.1c-1,3.9-3.3,8.5-6.4,12.3c-1.5,1.7-5.2,5-7.2,6.4
	c-4.6,3.1-10.1,5.1-15,5.5l-0.9,0.1l-1.1-1.3c-3.4-3.8-3.4-8.7,0.4-12.3c2.1-1.8,3.9-2.2,7.9-1.8c4.5,0.3,8.4,0,11.9-3.1
	c2.7-2.4,4.5-5.8,4.8-9.4c0.2-4-0.6-6-2.9-6.9c-2.2-0.9-3.9-0.3-8,2.4c-10,6.6-19.2,10.9-31.6,8.4c-3.8-0.9-7.3-2.8-10-5.6
	c-5.1-5.4-6.4-13.6-3.4-21.7C41.5,87.2,44.9,82.5,49.2,78.8z"/>
<path class="st0" d="M100,46.9l-0.1-0.4h7.3c4.1,0,7.5,0.1,7.6,0.1c0.1,0.1,0.5,1.5,0.9,3.2c0.4,1.6,0.9,3.1,1,3.3
	c0,0.2,0.5,1.8,0.9,3.6c1.3,4.6,2.7,9.3,3.7,13.9c0.5,1.7,1,3.5,1.1,3.9c0.1,0.4,0.7,2.3,1.1,4.2c0.6,2,1.4,5.1,1.8,6.9
	c0.5,1.8,1.3,4.7,1.7,6.4c0.4,1.6,1,3.5,1.2,4.3c0.2,0.7,0.7,2.6,1.1,4.2c1.5,5.7,2.4,8.7,2.5,8.8c0.1,0,0.7-0.3,1.3-0.6
	c4.7-3,6.8-8.9,6.8-14.3c0-4.1-1-7.6-3.4-10.9c-4.3-5.6-6.9-11.1-7.7-16.6c-0.2-1.3-0.3-5.3-0.1-6.4c0.7-5,2.7-9.3,5.9-12.8l1.1-1.2
	h7.1c3.8,0,7,0.1,7,0.1s-0.2,0.3-0.5,0.6c-2.3,2.1-4.3,5.6-5.5,9.7c-1.7,5.4-1.6,13,0.1,19.8c0.7,2.8,1.4,5.4,1.8,6.2
	c0.4,1.1,1.1,3.3,1.4,5.2c0.5,2.5,0.4,7.3-0.1,10.1c-2.3,13.7-13.3,18-25.5,18.3l-4.3,0.1l-3.3-13.5v0.1c-1.8-7.4-3.4-13.8-3.5-14.2
	c-0.2-0.8-1.9-7.5-2.9-11.7c-0.3-1.4-0.8-3.2-1-3.9c-0.1-0.6-1.4-5.7-2.8-11.3c-1.4-5.6-2.6-10.8-2.8-11.5
	C100.6,49.3,100.2,47.6,100,46.9z"/>
<path class="st0" d="M206.4,80.2c4,3,7.4,6.8,9.6,11.2c0.9,1.5,2,4.5,2.1,5.4c0.2,0.6,0.1,0.7-0.8,1.9c-3,3.9-8.1,5.1-12.1,2.1
	c-2.2-1.6-3-3.3-3.4-7.2c-0.3-4.5-1.6-8.2-5.2-11c-2.9-2.2-6.7-3.3-10.3-2.9c-4.1,0.6-5.8,1.7-6.1,4.3c-0.4,2.3,0.4,3.8,4,7.3
	c8.3,8.3,14.6,16.8,14.6,29.1c0,4-1.3,7.7-3.5,10.9c-3.7,5.4-10.1,8.3-17.8,8.1c-4-0.2-9-1.5-13.4-3.7c-1.9-1.1-6-4-7.7-5.7
	c-4-3.9-7.1-8.9-8.5-13.5l-0.3-0.8l1-1.4c3.1-4.1,7.9-5.1,12.1-2.1c2.2,1.7,3,3.4,3.4,7.3c0.6,4.5,1.7,8.2,5.5,11
	c2.9,2.2,6.6,3.2,10.2,2.8c4-0.6,5.8-1.8,6.1-4.3c0.4-2.3-0.5-3.9-4-7.3c-8.5-8.5-14.6-16.5-14.7-29.2c0.1-3.9,1.3-7.7,3.5-10.9
	c4.2-6.1,12-9,20.6-7.8C196.6,74.4,202,76.8,206.4,80.2z"/>
<circle class="st0" cx="126.7" cy="163.6" r="39.3"/>
<g>
	<path class="st1" d="M102.6,155.6c7,3.7,14.5-1,15.4-8.5c0.4-2.6,4.3-2.1,4,0.6C119.7,156.1,110.1,161.3,102.6,155.6L102.6,155.6z"
		/>
</g>
<path class="st1" d="M127.3,155.5c0-5.6,4.5-10.1,10.1-10.1s10.1,4.5,10.1,10.1"/>
<g>
	<path class="st1" d="M101.1,167c1.8,12,12.7,21.9,25,22.7c13,1.1,25.8-7.8,29.7-20.4c-1.5,6.5-5.2,12.6-10.5,17
		c-18.1,15-45.7,4.9-51.4-17.7C92.7,163.6,100.1,162,101.1,167L101.1,167z"/>
</g>
</svg>
